<?xml version="1.0" encoding="UTF-8" standalone="no"?>
<!-- Creator: CorelDRAW X6 -->

<svg
   xmlns:dc="http://purl.org/dc/elements/1.1/"
   xmlns:cc="http://creativecommons.org/ns#"
   xmlns:rdf="http://www.w3.org/1999/02/22-rdf-syntax-ns#"
   xmlns:svg="http://www.w3.org/2000/svg"
   xmlns="http://www.w3.org/2000/svg"
   xmlns:sodipodi="http://sodipodi.sourceforge.net/DTD/sodipodi-0.dtd"
   xmlns:inkscape="http://www.inkscape.org/namespaces/inkscape"
   xml:space="preserve"
   width="500px"
   height="707px"
   version="1.1"
   style="shape-rendering:geometricPrecision; text-rendering:geometricPrecision; image-rendering:optimizeQuality; fill-rule:evenodd; clip-rule:evenodd"
   viewBox="0 0 500 707"
   id="svg3749"
   sodipodi:docname="logo1.svg"
   inkscape:version="0.92.1 r15371"><metadata
     id="metadata3753"><rdf:RDF><cc:Work
         rdf:about=""><dc:format>image/svg+xml</dc:format><dc:type
           rdf:resource="http://purl.org/dc/dcmitype/StillImage" /><dc:title></dc:title></cc:Work></rdf:RDF></metadata><sodipodi:namedview
     pagecolor="#ffffff"
     bordercolor="#666666"
     borderopacity="1"
     objecttolerance="10"
     gridtolerance="10"
     guidetolerance="10"
     inkscape:pageopacity="0"
     inkscape:pageshadow="2"
     inkscape:window-width="1920"
     inkscape:window-height="1027"
     id="namedview3751"
     showgrid="false"
     inkscape:zoom="1.2135785"
     inkscape:cx="318.54429"
     inkscape:cy="448.52896"
     inkscape:window-x="-8"
     inkscape:window-y="-8"
     inkscape:window-maximized="1"
     inkscape:current-layer="svg3749" /><defs
     id="defs3682"><style
       type="text/css"
       id="style3680"><![CDATA[
    .str0 {stroke:#2B2A29;stroke-width:0.47619}
    .fil6 {fill:none}
    .fil0 {fill:#7D7B78}
    .fil2 {fill:#F38000}
    .fil1 {fill:#FFA200}
    .fil4 {fill:#FEFEFE;fill-rule:nonzero}
    .fil5 {fill:#7D7B78;fill-rule:nonzero}
    .fil3 {fill:#F48000;fill-rule:nonzero}
   ]]></style></defs><g
     id="Слой_x0020_1"
     transform="matrix(0.73063785,0,0,0.72857801,-229.52706,-3614.0118)"><metadata
       id="CorelCorpID_0Corel-Layer" /><path
       class="fil0"
       d="m 911,5162 v -53 l -254,-146 -2,-2 -257,148 v 53 c -16,1 -32,2 -48,4 h -6 l 18,184 5,-1 c 10,-1 21,-2 31,-2 v 58 l 254,147 3,1 256,-148 v -58 c 10,0 21,1 31,2 l 6,1 17,-184 h -5 c -17,-2 -33,-3 -49,-4 z m -476,-31 v 0 l 220,-127 219,127 v 28 c -146,-10 -293,-10 -439,0 z m 221,-133 v 0 l -1,-1 -226,130 v 32 c -7,1 -13,1 -20,2 v -46 l 246,-142 245,142 v 46 c -6,-1 -13,-1 -20,-2 v -32 z m 244,401 v 0 L 655,5541 409,5399 v -53 c 7,-1 13,-1 20,-2 v 43 l 224,130 2,1 225,-131 v -43 c 7,1 14,1 20,2 z m -23,-55 v 0 h -3 v 40 L 655,5511 435,5384 v -40 h -3 -2 c 1,0 1,0 2,0 1,0 2,0 3,0 146,-11 293,-11 439,0 1,0 2,0 3,0 1,0 2,0 3,0 z m 66,-56 v 0 l -5,50 c -9,0 -18,-1 -27,-2 -2,0 -4,0 -5,0 -2,-1 -4,-1 -6,-1 -6,0 -13,-1 -20,-1 -1,0 -2,0 -3,-1 -1,0 -2,0 -3,0 -73,-5 -146,-8 -219,-8 -74,0 -147,3 -220,8 -1,0 -2,0 -3,0 -1,1 -2,1 -3,1 -7,0 -13,1 -20,1 -2,0 -4,0 -5,1 -2,0 -4,0 -6,0 -9,1 -18,2 -27,2 l -4,-50 -11,-112 c 3,-1 7,-1 11,-1 10,-1 21,-2 31,-3 2,0 4,0 6,0 1,0 3,0 5,-1 5,0 9,0 14,-1 2,0 4,0 6,0 v 0 h 3 3 v -1 c 146,-9 293,-9 439,0 v 1 h 3 3 v 0 c 2,0 4,0 6,0 5,1 10,1 14,1 2,1 4,1 6,1 1,0 3,0 5,0 11,1 21,2 32,3 3,0 7,0 10,1 z"
       id="path3685"
       inkscape:connector-curvature="0"
       style="fill:#7d7b78" /><polygon
       class="fil0"
       points="607,5140 703,5140 713,5111 661,5034 655,5026 649,5034 596,5111 "
       id="polygon3687"
       style="fill:#7d7b78" /><polygon
       class="fil1"
       points="542,5107 530,5108 539,5118 537,5130 548,5124 560,5130 557,5118 567,5108 554,5107 548,5095 "
       id="polygon3689"
       style="fill:#ffa200" /><polygon
       class="fil1"
       points="773,5130 770,5118 780,5108 767,5107 761,5095 755,5107 743,5108 752,5118 750,5130 761,5124 "
       id="polygon3691"
       style="fill:#ffa200" /><polygon
       class="fil2"
       points="390,5234 386,5238 381,5244 376,5250 372,5255 377,5259 383,5264 389,5270 393,5273 410,5253 411,5251 409,5250 "
       id="polygon3693"
       style="fill:#f38000" /><polygon
       class="fil2"
       points="930,5256 929,5254 924,5247 919,5241 913,5234 896,5247 893,5250 891,5251 892,5252 895,5256 908,5273 916,5267 922,5262 928,5257 "
       id="polygon3695"
       style="fill:#f38000" /><path
       class="fil3"
       d="m 453,5273 1,8 -25,1 v -7 l 6,-3 -3,-40 -7,-2 v -7 l 22,-2 15,27 11,-29 21,-2 v 8 l -6,3 3,40 7,2 v 7 l -25,2 -1,-7 7,-3 -2,-32 c -1,3 -2,5 -3,8 -2,3 -3,7 -4,10 -2,4 -3,6 -4,8 l -9,1 -11,-19 -2,-4 2,31 z"
       id="path3697"
       inkscape:connector-curvature="0"
       style="fill:#f48000;fill-rule:nonzero" /><path
       id="1"
       class="fil3"
       d="m 546,5255 -29,1 c 0,3 2,6 4,8 1,2 4,3 7,3 2,0 4,-1 7,-2 2,0 4,-1 5,-2 l 2,-1 4,7 c -1,0 -1,1 -3,2 -1,1 -3,2 -6,3 -4,2 -7,3 -10,3 -8,0 -13,-2 -17,-6 -4,-4 -6,-9 -6,-17 -1,-7 1,-13 5,-18 4,-5 10,-7 17,-7 6,-1 11,1 14,5 4,3 6,8 6,14 z m -21,-16 c -2,0 -4,1 -5,2 -2,2 -3,4 -3,7 l 16,-1 c -1,-6 -3,-8 -8,-8 z"
       inkscape:connector-curvature="0"
       style="fill:#f48000;fill-rule:nonzero" /><path
       id="2"
       class="fil3"
       d="m 553,5284 c 0,-2 1,-4 2,-6 2,-1 3,-3 4,-3 l 3,-1 c -1,0 -1,-1 -2,-1 0,0 -1,0 -2,-1 -1,-1 -2,-2 -2,-4 0,-2 2,-5 5,-10 -5,-2 -7,-7 -7,-13 -1,-6 1,-10 5,-13 4,-3 8,-5 15,-5 3,0 7,0 10,2 l 14,-1 1,7 -7,1 c 0,0 0,1 0,1 0,1 1,2 1,3 0,1 0,2 0,3 1,6 -1,10 -5,13 -3,3 -8,5 -15,5 0,0 -1,0 -2,0 0,0 -1,0 -1,0 -1,0 -1,0 -1,0 v 6 l 13,-1 c 5,0 9,1 12,3 3,2 5,6 5,10 0,5 -2,9 -6,12 -4,3 -9,5 -17,5 -8,0 -13,-1 -17,-2 -4,-2 -6,-5 -6,-10 z m 20,-48 c -4,0 -7,3 -7,8 1,6 3,9 8,9 2,-1 4,-1 5,-3 1,-1 2,-3 2,-6 -1,-6 -3,-8 -8,-8 z m 5,40 h -9 c 0,0 0,0 -1,1 0,0 -1,1 -2,2 0,1 -1,2 -1,3 0,2 1,3 3,4 2,0 5,1 8,0 4,0 7,0 9,-1 1,-1 2,-3 2,-5 0,-2 -1,-3 -2,-3 -1,-1 -4,-1 -7,-1 z"
       inkscape:connector-curvature="0"
       style="fill:#f48000;fill-rule:nonzero" /><path
       id="3"
       class="fil3"
       d="m 651,5272 -17,1 -2,-5 c 0,0 -1,1 -2,1 -1,1 -2,2 -5,3 -2,2 -4,2 -7,2 -4,1 -7,-1 -9,-3 -3,-2 -4,-5 -4,-10 -1,-9 6,-14 20,-14 l 6,-1 v -4 c 0,-5 -3,-7 -7,-7 -1,0 -3,1 -4,1 -1,0 -2,0 -3,1 h -1 l -1,6 h -7 l -1,-13 c 6,-2 13,-4 18,-4 7,0 11,1 14,3 3,3 4,7 4,14 l 1,21 7,1 z m -34,-12 c 0,3 2,5 5,5 2,0 3,-1 5,-2 1,-1 2,-1 3,-2 l 1,-2 v -5 h -5 c -3,0 -5,0 -7,1 -1,1 -2,3 -2,5 z"
       inkscape:connector-curvature="0"
       style="fill:#f48000;fill-rule:nonzero" /><polygon
       id="4"
       class="fil3"
       points="658,5254 659,5244 683,5245 683,5255 "
       style="fill:#f48000;fill-rule:nonzero" /><path
       id="5"
       class="fil3"
       d="m 733,5233 -2,-8 c -2,-1 -5,-1 -9,-1 -10,-1 -15,6 -15,20 -1,13 4,20 14,20 1,0 2,0 4,0 2,0 3,0 4,0 l 1,-1 v -11 l -6,-2 v -7 l 25,1 v 7 l -6,2 -1,17 c 0,1 -1,1 -3,2 -1,0 -4,1 -8,2 -4,1 -8,1 -12,1 -9,0 -16,-3 -20,-8 -5,-5 -7,-13 -7,-23 1,-10 4,-18 9,-23 5,-6 12,-8 21,-8 3,0 7,0 10,1 3,1 6,2 8,2 l 2,2 -1,15 z"
       inkscape:connector-curvature="0"
       style="fill:#f48000;fill-rule:nonzero" /><path
       id="6"
       class="fil3"
       d="m 766,5257 1,7 c 2,1 5,2 8,2 3,0 5,0 7,-2 2,-1 4,-2 4,-5 0,-1 -1,-2 -2,-4 -2,-1 -4,-2 -6,-2 -2,-1 -4,-2 -7,-3 -2,-1 -4,-3 -6,-4 -3,-1 -4,-3 -6,-6 -1,-2 -2,-5 -2,-8 1,-6 3,-10 7,-13 4,-3 9,-5 16,-5 3,0 6,1 9,1 3,1 5,2 7,2 l 3,1 -1,16 h -8 l -2,-8 c -3,-1 -5,-1 -8,-1 -3,0 -5,0 -6,1 -2,1 -3,3 -3,5 0,1 1,2 2,4 1,1 3,2 5,3 3,0 5,1 7,2 3,1 5,3 7,4 2,1 4,3 5,5 2,3 2,6 2,9 0,6 -2,11 -7,14 -4,3 -10,5 -17,5 -3,0 -6,-1 -9,-1 -3,-1 -5,-2 -7,-2 l -3,-1 1,-17 z"
       inkscape:connector-curvature="0"
       style="fill:#f48000;fill-rule:nonzero" /><path
       id="7"
       class="fil3"
       d="m 831,5271 -1,8 -24,-2 1,-8 6,-1 3,-41 -6,-3 v -7 l 23,1 10,30 16,-28 20,2 v 7 l -7,2 -2,41 6,2 -1,8 -25,-2 v -7 l 7,-2 2,-32 c -1,2 -2,5 -4,8 -1,2 -3,5 -5,9 -2,3 -3,6 -4,7 h -10 l -8,-21 -1,-4 -2,31 z"
       inkscape:connector-curvature="0"
       style="fill:#f48000;fill-rule:nonzero" /><path
       class="fil4"
       d="m 696,5057 -8,8 v 63 l 7,7 h -28 l 9,-7 v -41 l -19,53 h -6 l -1,-2 h 6 l 20,-56 v -9 l -23,62 h -4 l -17,-49 v 32 c 0,4 1,7 1,9 1,2 2,4 4,6 l 6,7 h -32 l -1,-2 h 30 l -3,-3 h -27 l 2,-1 c 4,-2 7,-5 9,-7 1,-3 2,-7 2,-12 v -50 l -8,-8 h 31 l -9,8 17,51 3,-6 -16,-45 8,-5 1,1 -7,5 14,42 16,-43 -8,-8 z m -68,14 v 44 c 0,6 0,11 1,13 2,3 4,5 8,6 v -1 c -4,-3 -6,-7 -6,-12 v -4 -36 z m 71,-9 -7,5 v 61 l 11,12 h -32 l -1,-2 h 29 l -8,-9 v -63 l 7,-5 z"
       id="path3706"
       inkscape:connector-curvature="0"
       style="fill:#fefefe;fill-rule:nonzero" /><polygon
       class="fil5"
       points="534,5383 530,5396 521,5397 513,5371 510,5370 510,5365 525,5365 525,5370 522,5371 526,5387 532,5366 539,5364 546,5387 549,5370 546,5369 546,5365 561,5364 561,5369 558,5370 551,5396 542,5396 537,5381 535,5377 "
       id="polygon3708"
       style="fill:#7d7b78;fill-rule:nonzero" /><path
       id="path3710"
       class="fil5"
       d="m 579,5363 c 5,0 8,1 11,4 3,3 4,6 4,11 0,6 -1,10 -4,13 -3,3 -6,5 -11,5 -10,0 -15,-5 -15,-16 -1,-5 1,-9 4,-12 2,-3 6,-5 11,-5 z m 0,7 c -2,0 -4,1 -5,2 -1,1 -1,4 -1,8 0,3 0,5 1,7 1,1 3,2 5,2 2,0 4,-1 5,-2 1,-2 1,-4 1,-8 0,-3 0,-6 -1,-7 -1,-2 -3,-2 -5,-2 z"
       inkscape:connector-curvature="0"
       style="fill:#7d7b78;fill-rule:nonzero" /><path
       id="path3712"
       class="fil5"
       d="m 598,5363 12,-1 1,4 c 0,0 1,0 1,-1 1,0 2,-1 3,-2 1,-1 3,-1 4,-1 1,0 2,0 3,0 0,0 1,0 2,0 v 1 11 h -5 l -1,-5 c -1,0 -2,0 -3,1 -1,0 -2,1 -3,1 v 1 16 l 6,1 v 5 h -19 v -4 l 4,-2 v -19 l -5,-1 z"
       inkscape:connector-curvature="0"
       style="fill:#7d7b78;fill-rule:nonzero" /><polygon
       id="polygon3714"
       class="fil5"
       points="662,5388 662,5392 651,5393 644,5378 640,5379 640,5387 643,5388 644,5393 627,5393 627,5389 632,5387 631,5354 626,5353 626,5348 639,5347 640,5373 644,5373 648,5367 645,5366 645,5361 660,5361 660,5366 656,5367 651,5374 658,5386 "
       style="fill:#7d7b78;fill-rule:nonzero" /><path
       id="path3716"
       class="fil5"
       d="m 671,5383 v 4 c 2,0 3,0 5,0 3,1 5,-1 5,-3 0,-1 -1,-1 -2,-2 -1,-1 -2,-1 -4,-2 -1,0 -3,-1 -4,-2 -2,0 -3,-1 -4,-3 -1,-1 -1,-3 -1,-5 0,-3 1,-5 3,-7 3,-2 5,-2 9,-2 1,0 3,0 5,0 2,1 3,1 4,1 l 2,1 c 0,2 0,5 -1,9 l -5,-1 -1,-3 c -1,-1 -2,-1 -3,-1 -2,0 -3,0 -3,1 -1,0 -1,1 -1,2 -1,1 0,1 1,2 1,1 2,1 4,2 1,0 3,1 4,2 2,0 3,1 4,3 1,1 2,2 2,4 0,4 -2,6 -4,8 -3,2 -6,3 -10,3 -2,0 -3,-1 -5,-1 -2,0 -3,0 -4,-1 h -2 v -10 z"
       inkscape:connector-curvature="0"
       style="fill:#7d7b78;fill-rule:nonzero" /><path
       id="path3718"
       class="fil5"
       d="m 694,5349 h 14 l -1,17 c 3,-3 7,-4 10,-4 3,0 5,1 7,3 1,2 2,5 2,8 v 16 l 4,1 v 5 l -16,-1 v -4 l 3,-2 v -14 c 0,-3 -1,-5 -4,-5 -1,0 -2,1 -3,1 -1,1 -2,1 -2,2 h -1 v 16 l 3,2 v 4 h -17 v -5 l 5,-1 1,-33 -5,-1 z"
       inkscape:connector-curvature="0"
       style="fill:#7d7b78;fill-rule:nonzero" /><path
       id="path3720"
       class="fil5"
       d="m 750,5363 c 4,0 8,2 10,5 3,2 4,6 4,11 0,6 -2,10 -5,13 -2,3 -6,4 -11,4 -10,0 -15,-6 -15,-16 0,-6 2,-10 5,-13 3,-3 7,-4 12,-4 z m -1,7 c -2,0 -4,1 -5,2 -1,1 -1,4 -2,7 0,4 1,6 2,8 1,1 2,2 4,2 3,0 4,0 5,-2 1,-1 2,-4 2,-8 0,-3 0,-5 -1,-7 -1,-1 -3,-2 -5,-2 z"
       inkscape:connector-curvature="0"
       style="fill:#7d7b78;fill-rule:nonzero" /><path
       id="path3722"
       class="fil5"
       d="m 772,5370 -5,-1 1,-5 h 12 v 4 c 1,-1 1,-1 2,-1 0,-1 1,-1 3,-2 1,-1 3,-1 4,-1 4,0 7,1 9,4 2,3 3,7 3,12 0,5 -2,10 -4,12 -3,3 -7,5 -12,5 -2,0 -3,-1 -5,-1 v 7 l 6,2 -1,5 -18,-1 v -5 l 4,-1 z m 9,4 -1,16 c 1,0 3,0 5,1 2,0 4,-1 5,-3 1,-2 2,-4 2,-7 0,-7 -2,-10 -6,-10 -1,0 -2,0 -3,0 -1,1 -1,2 -2,2 z"
       inkscape:connector-curvature="0"
       style="fill:#7d7b78;fill-rule:nonzero" /><line
       class="fil6 str0"
       x1="435"
       y1="5384"
       x2="655"
       y2="5511"
       id="line3724"
       style="fill:none;stroke:#2b2a29;stroke-width:0.47619" /><path
       class="fil5"
       d="m 572,5445 -1,2 c 0,1 1,1 2,2 2,1 3,1 3,0 1,-1 0,-1 0,-2 0,-1 -1,-1 -1,-2 -1,-1 -2,-1 -2,-2 -1,-1 -1,-2 -1,-3 0,-1 0,-2 0,-3 1,-1 3,-2 4,-2 2,-1 4,0 5,1 1,0 2,1 3,2 1,0 1,1 2,1 v 1 c 0,1 -1,2 -2,4 l -3,-1 1,-2 c -1,-1 -1,-1 -2,-2 -1,0 -1,0 -2,0 0,0 -1,0 -1,1 0,0 0,0 0,1 1,1 1,1 2,2 0,1 1,1 2,2 0,1 0,2 1,3 0,1 0,2 -1,2 -1,2 -2,3 -4,3 -2,1 -4,0 -6,-1 0,-1 -1,-1 -2,-2 -1,0 -2,-1 -2,-1 l -1,-1 3,-5 z"
       id="path3726"
       inkscape:connector-curvature="0"
       style="fill:#7d7b78;fill-rule:nonzero" /><path
       id="path3728"
       class="fil5"
       d="m 589,5441 7,4 -7,12 1,2 -1,3 -9,-5 2,-3 2,1 6,-10 -2,-2 z m 5,-4 c 0,-1 1,-1 2,-1 1,-1 1,0 2,0 2,1 2,2 1,4 -1,1 -1,1 -2,2 -1,0 -1,0 -2,-1 -1,0 -1,-1 -2,-2 0,0 0,-1 1,-2 z"
       inkscape:connector-curvature="0"
       style="fill:#7d7b78;fill-rule:nonzero" /><path
       id="path3730"
       class="fil5"
       d="m 600,5447 6,3 -1,3 c 0,-1 1,-1 1,-1 1,0 1,0 3,1 1,0 2,0 3,0 1,1 2,2 2,4 0,1 0,2 -1,4 l -5,8 c 1,0 1,0 1,1 1,0 1,1 1,1 l -1,2 -8,-5 1,-2 h 2 l 4,-7 c 1,0 1,-1 1,-2 0,0 -1,-1 -1,-1 -1,-1 -2,-1 -2,-1 -1,0 -1,0 -2,0 l -1,1 -4,7 1,2 -1,2 -8,-4 1,-3 3,1 5,-10 -2,-2 z"
       inkscape:connector-curvature="0"
       style="fill:#7d7b78;fill-rule:nonzero" /><path
       id="path3732"
       class="fil5"
       d="m 625,5476 v 4 c -3,0 -5,0 -7,-1 -3,-2 -4,-4 -5,-6 0,-2 0,-4 2,-7 1,-2 3,-4 5,-5 3,0 5,0 7,2 1,0 2,0 3,1 0,1 1,1 1,2 h 1 l -3,5 -3,-1 1,-3 c 0,0 -1,-1 -2,-1 -1,-1 -2,-1 -3,0 -1,0 -2,1 -3,2 0,2 -1,3 -1,5 0,1 1,2 2,2 1,1 1,1 1,1 1,0 1,0 2,0 0,0 0,0 0,0 1,0 1,0 1,0 1,0 1,0 1,0 z"
       inkscape:connector-curvature="0"
       style="fill:#7d7b78;fill-rule:nonzero" /><path
       id="path3734"
       class="fil5"
       d="m 644,5484 -10,-6 c -1,2 -1,3 -1,4 1,1 1,2 2,2 1,1 2,1 3,1 1,0 1,1 2,1 h 1 v 3 c -1,0 -1,0 -2,0 0,0 -1,0 -2,0 -2,-1 -3,-1 -4,-2 -3,-1 -4,-3 -5,-5 0,-2 0,-4 2,-7 1,-3 3,-4 5,-5 3,-1 5,0 7,1 2,1 4,3 4,5 1,2 0,4 -1,6 z m -4,-10 c -1,0 -2,0 -2,0 -1,0 -2,1 -2,2 l 5,3 c 1,-2 1,-4 -1,-5 z"
       inkscape:connector-curvature="0"
       style="fill:#7d7b78;fill-rule:nonzero" /><path
       class="fil5"
       d="m 684,5478 2,3 -15,9 -2,-4 c 1,-2 2,-3 2,-4 0,-2 1,-3 1,-4 1,-2 1,-3 1,-4 0,0 0,-1 0,-2 0,-1 0,-2 0,-2 -1,-1 -1,-2 -2,-2 -1,0 -2,0 -3,1 -1,0 -1,1 -2,1 0,0 0,0 -1,1 v 0 l 1,3 -3,1 -3,-5 c 2,-2 4,-4 6,-5 2,-1 5,-2 6,-2 2,0 4,1 5,3 1,1 1,2 1,4 0,1 0,2 0,3 0,2 0,3 -1,5 0,1 -1,3 -1,5 z"
       id="path3736"
       inkscape:connector-curvature="0"
       style="fill:#7d7b78;fill-rule:nonzero" /><path
       id="path3738"
       class="fil5"
       d="m 681,5460 c 0,-2 2,-4 4,-6 3,-2 6,-2 8,-1 2,1 4,3 6,7 4,7 4,12 -2,15 -2,2 -5,2 -7,1 -2,-1 -4,-3 -6,-7 -2,-3 -3,-6 -3,-9 z m 9,-2 c -1,-1 -2,-1 -3,0 -1,0 -1,1 -1,3 0,1 1,3 2,5 2,3 3,5 4,5 1,1 2,1 3,1 1,-1 2,-2 2,-3 0,-2 -1,-4 -3,-6 -1,-3 -3,-4 -4,-5 z"
       inkscape:connector-curvature="0"
       style="fill:#7d7b78;fill-rule:nonzero" /><path
       id="path3740"
       class="fil5"
       d="m 700,5449 c 0,-2 1,-4 4,-6 3,-1 5,-2 7,-1 3,1 5,4 7,7 4,7 3,13 -2,16 -3,1 -5,1 -7,0 -2,-1 -5,-3 -7,-7 -2,-3 -3,-6 -2,-9 z m 9,-2 c -1,-1 -2,-1 -3,0 -1,1 -2,1 -1,3 0,1 1,3 2,6 2,2 3,4 4,5 1,0 2,0 3,0 1,-1 2,-2 1,-3 0,-1 -1,-3 -2,-6 -2,-3 -3,-4 -4,-5 z"
       inkscape:connector-curvature="0"
       style="fill:#7d7b78;fill-rule:nonzero" /><path
       id="path3742"
       class="fil5"
       d="m 725,5457 -1,-4 c 3,0 5,0 6,-1 1,-1 2,-2 2,-3 1,0 0,-1 0,-2 -1,-1 -2,-2 -3,-2 -1,0 -2,1 -4,2 l -3,2 -6,-12 12,-7 1,4 -7,4 2,5 c 3,-2 5,-3 8,-3 2,1 3,2 5,4 1,2 1,4 0,6 -1,2 -2,4 -4,5 -1,1 -3,1 -4,1 -1,1 -2,1 -3,1 z"
       inkscape:connector-curvature="0"
       style="fill:#7d7b78;fill-rule:nonzero" /><line
       class="fil6 str0"
       x1="655"
       y1="5511"
       x2="874"
       y2="5384"
       id="line3744"
       style="fill:none;stroke:#2b2a29;stroke-width:0.47619" /><polygon
       class="fil1"
       points="664,5446 662,5433 671,5424 658,5423 652,5411 647,5423 634,5424 643,5433 641,5446 652,5440 "
       id="polygon3746"
       style="fill:#ffa200" /></g></svg>