<?xml version="1.0" encoding="UTF-8"?>
<!DOCTYPE svg PUBLIC "-//W3C//DTD SVG 1.1//EN" "http://www.w3.org/Graphics/SVG/1.1/DTD/svg11.dtd">
<!-- Creator: CorelDRAW X6 -->
<svg xmlns="http://www.w3.org/2000/svg" xml:space="preserve" width="500px" height="707px" version="1.1" style="shape-rendering:geometricPrecision; text-rendering:geometricPrecision; image-rendering:optimizeQuality; fill-rule:evenodd; clip-rule:evenodd"
viewBox="0 0 500 707"
 xmlns:xlink="http://www.w3.org/1999/xlink">
 <defs>
  <style type="text/css">
   <![CDATA[
    .str0 {stroke:#2B2A29;stroke-width:0.47619}
    .fil6 {fill:none}
    .fil0 {fill:#7D7B78}
    .fil2 {fill:#F38000}
    .fil1 {fill:#FFA200}
    .fil4 {fill:#FEFEFE;fill-rule:nonzero}
    .fil5 {fill:#7D7B78;fill-rule:nonzero}
    .fil3 {fill:#F48000;fill-rule:nonzero}
   ]]>
  </style>
 </defs>
 <g id="Слой_x0020_1">
  <metadata id="CorelCorpID_0Corel-Layer"/>
  <path class="fil0" d="M911 5162l0 -53 -254 -146 -2 -2 -257 148 0 53c-16,1 -32,2 -48,4l-6 0 18 184 5 -1c10,-1 21,-2 31,-2l0 58 254 147 3 1 256 -148 0 -58c10,0 21,1 31,2l6 1 17 -184 -5 0c-17,-2 -33,-3 -49,-4zm-476 -31l0 0 220 -127 219 127 0 28c-146,-10 -293,-10 -439,0l0 -28zm221 -133l0 0 -1 -1 -226 130 0 32c-7,1 -13,1 -20,2l0 -46 246 -142 245 142 0 46c-6,-1 -13,-1 -20,-2l0 -32 -224 -129zm244 401l0 0 -245 142 -246 -142 0 -53c7,-1 13,-1 20,-2l0 43 224 130 2 1 225 -131 0 -43c7,1 14,1 20,2l0 53zm-23 -55l0 0 -3 0 0 40 -219 127 -220 -127 0 -40 -3 0 -2 0c1,0 1,0 2,0 1,0 2,0 3,0 146,-11 293,-11 439,0 1,0 2,0 3,0 1,0 2,0 3,0l-3 0zm66 -56l0 0 -5 50c-9,0 -18,-1 -27,-2 -2,0 -4,0 -5,0 -2,-1 -4,-1 -6,-1 -6,0 -13,-1 -20,-1 -1,0 -2,0 -3,-1 -1,0 -2,0 -3,0 -73,-5 -146,-8 -219,-8 -74,0 -147,3 -220,8 -1,0 -2,0 -3,0 -1,1 -2,1 -3,1 -7,0 -13,1 -20,1 -2,0 -4,0 -5,1 -2,0 -4,0 -6,0 -9,1 -18,2 -27,2l-4 -50 -11 -112c3,-1 7,-1 11,-1 10,-1 21,-2 31,-3 2,0 4,0 6,0 1,0 3,0 5,-1 5,0 9,0 14,-1 2,0 4,0 6,0l0 0 3 0 3 0 0 -1c146,-9 293,-9 439,0l0 1 3 0 3 0 0 0c2,0 4,0 6,0 5,1 10,1 14,1 2,1 4,1 6,1 1,0 3,0 5,0 11,1 21,2 32,3 3,0 7,0 10,1l-10 112z"/>
  <polygon class="fil0" points="713,5111 661,5034 655,5026 649,5034 596,5111 607,5140 703,5140 "/>
  <polygon class="fil1" points="554,5107 548,5095 542,5107 530,5108 539,5118 537,5130 548,5124 560,5130 557,5118 567,5108 "/>
  <polygon class="fil1" points="750,5130 761,5124 773,5130 770,5118 780,5108 767,5107 761,5095 755,5107 743,5108 752,5118 "/>
  <polygon class="fil2" points="390,5234 386,5238 381,5244 376,5250 372,5255 377,5259 383,5264 389,5270 393,5273 410,5253 411,5251 409,5250 "/>
  <polygon class="fil2" points="924,5247 919,5241 913,5234 896,5247 893,5250 891,5251 892,5252 895,5256 908,5273 916,5267 922,5262 928,5257 930,5256 929,5254 "/>
  <path class="fil3" d="M453 5273l1 8 -25 1 0 -7 6 -3 -3 -40 -7 -2 0 -7 22 -2 15 27 11 -29 21 -2 0 8 -6 3 3 40 7 2 0 7 -25 2 -1 -7 7 -3 -2 -32c-1,3 -2,5 -3,8 -2,3 -3,7 -4,10 -2,4 -3,6 -4,8l-9 1 -11 -19 -2 -4 2 31 7 1z"/>
  <path id="1" class="fil3" d="M546 5255l-29 1c0,3 2,6 4,8 1,2 4,3 7,3 2,0 4,-1 7,-2 2,0 4,-1 5,-2l2 -1 4 7c-1,0 -1,1 -3,2 -1,1 -3,2 -6,3 -4,2 -7,3 -10,3 -8,0 -13,-2 -17,-6 -4,-4 -6,-9 -6,-17 -1,-7 1,-13 5,-18 4,-5 10,-7 17,-7 6,-1 11,1 14,5 4,3 6,8 6,14l0 7zm-21 -16c-2,0 -4,1 -5,2 -2,2 -3,4 -3,7l16 -1c-1,-6 -3,-8 -8,-8z"/>
  <path id="2" class="fil3" d="M553 5284c0,-2 1,-4 2,-6 2,-1 3,-3 4,-3l3 -1c-1,0 -1,-1 -2,-1 0,0 -1,0 -2,-1 -1,-1 -2,-2 -2,-4 0,-2 2,-5 5,-10 -5,-2 -7,-7 -7,-13 -1,-6 1,-10 5,-13 4,-3 8,-5 15,-5 3,0 7,0 10,2l14 -1 1 7 -7 1c0,0 0,1 0,1 0,1 1,2 1,3 0,1 0,2 0,3 1,6 -1,10 -5,13 -3,3 -8,5 -15,5 0,0 -1,0 -2,0 0,0 -1,0 -1,0 -1,0 -1,0 -1,0l0 6 13 -1c5,0 9,1 12,3 3,2 5,6 5,10 0,5 -2,9 -6,12 -4,3 -9,5 -17,5 -8,0 -13,-1 -17,-2 -4,-2 -6,-5 -6,-10zm20 -48c-4,0 -7,3 -7,8 1,6 3,9 8,9 2,-1 4,-1 5,-3 1,-1 2,-3 2,-6 -1,-6 -3,-8 -8,-8zm5 40l-9 0c0,0 0,0 -1,1 0,0 -1,1 -2,2 0,1 -1,2 -1,3 0,2 1,3 3,4 2,0 5,1 8,0 4,0 7,0 9,-1 1,-1 2,-3 2,-5 0,-2 -1,-3 -2,-3 -1,-1 -4,-1 -7,-1z"/>
  <path id="3" class="fil3" d="M651 5272l-17 1 -2 -5c0,0 -1,1 -2,1 -1,1 -2,2 -5,3 -2,2 -4,2 -7,2 -4,1 -7,-1 -9,-3 -3,-2 -4,-5 -4,-10 -1,-9 6,-14 20,-14l6 -1 0 -4c0,-5 -3,-7 -7,-7 -1,0 -3,1 -4,1 -1,0 -2,0 -3,1l-1 0 -1 6 -7 0 -1 -13c6,-2 13,-4 18,-4 7,0 11,1 14,3 3,3 4,7 4,14l1 21 7 1 0 7zm-34 -12c0,3 2,5 5,5 2,0 3,-1 5,-2 1,-1 2,-1 3,-2l1 -2 0 -5 -5 0c-3,0 -5,0 -7,1 -1,1 -2,3 -2,5z"/>
  <polygon id="4" class="fil3" points="658,5254 659,5244 683,5245 683,5255 "/>
  <path id="5" class="fil3" d="M733 5233l-2 -8c-2,-1 -5,-1 -9,-1 -10,-1 -15,6 -15,20 -1,13 4,20 14,20 1,0 2,0 4,0 2,0 3,0 4,0l1 -1 0 -11 -6 -2 0 -7 25 1 0 7 -6 2 -1 17c0,1 -1,1 -3,2 -1,0 -4,1 -8,2 -4,1 -8,1 -12,1 -9,0 -16,-3 -20,-8 -5,-5 -7,-13 -7,-23 1,-10 4,-18 9,-23 5,-6 12,-8 21,-8 3,0 7,0 10,1 3,1 6,2 8,2l2 2 -1 15 -8 0z"/>
  <path id="6" class="fil3" d="M766 5257l1 7c2,1 5,2 8,2 3,0 5,0 7,-2 2,-1 4,-2 4,-5 0,-1 -1,-2 -2,-4 -2,-1 -4,-2 -6,-2 -2,-1 -4,-2 -7,-3 -2,-1 -4,-3 -6,-4 -3,-1 -4,-3 -6,-6 -1,-2 -2,-5 -2,-8 1,-6 3,-10 7,-13 4,-3 9,-5 16,-5 3,0 6,1 9,1 3,1 5,2 7,2l3 1 -1 16 -8 0 -2 -8c-3,-1 -5,-1 -8,-1 -3,0 -5,0 -6,1 -2,1 -3,3 -3,5 0,1 1,2 2,4 1,1 3,2 5,3 3,0 5,1 7,2 3,1 5,3 7,4 2,1 4,3 5,5 2,3 2,6 2,9 0,6 -2,11 -7,14 -4,3 -10,5 -17,5 -3,0 -6,-1 -9,-1 -3,-1 -5,-2 -7,-2l-3 -1 1 -17 9 1z"/>
  <path id="7" class="fil3" d="M831 5271l-1 8 -24 -2 1 -8 6 -1 3 -41 -6 -3 0 -7 23 1 10 30 16 -28 20 2 0 7 -7 2 -2 41 6 2 -1 8 -25 -2 0 -7 7 -2 2 -32c-1,2 -2,5 -4,8 -1,2 -3,5 -5,9 -2,3 -3,6 -4,7l-10 0 -8 -21 -1 -4 -2 31 6 2z"/>
  <path class="fil4" d="M696 5057l-8 8 0 63 7 7 -28 0 9 -7 0 -41 -19 53 -6 0 -1 -2 6 0 20 -56 0 -9 -23 62 -4 0 -17 -49 0 32c0,4 1,7 1,9 1,2 2,4 4,6l6 7 -32 0 -1 -2 30 0 -3 -3 -27 0 2 -1c4,-2 7,-5 9,-7 1,-3 2,-7 2,-12l0 -50 -8 -8 31 0 -9 8 17 51 3 -6 -16 -45 8 -5 1 1 -7 5 14 42 16 -43 -8 -8 31 0zm-68 14l0 44c0,6 0,11 1,13 2,3 4,5 8,6l0 -1c-4,-3 -6,-7 -6,-12l0 -4 0 -36 -3 -10zm71 -9l-7 5 0 61 11 12 -32 0 -1 -2 29 0 -8 -9 0 -63 7 -5 1 1z"/>
  <polygon class="fil5" points="539,5364 546,5387 549,5370 546,5369 546,5365 561,5364 561,5369 558,5370 551,5396 542,5396 537,5381 535,5377 534,5383 530,5396 521,5397 513,5371 510,5370 510,5365 525,5365 525,5370 522,5371 526,5387 532,5366 "/>
  <path id="1" class="fil5" d="M579 5363c5,0 8,1 11,4 3,3 4,6 4,11 0,6 -1,10 -4,13 -3,3 -6,5 -11,5 -10,0 -15,-5 -15,-16 -1,-5 1,-9 4,-12 2,-3 6,-5 11,-5zm0 7c-2,0 -4,1 -5,2 -1,1 -1,4 -1,8 0,3 0,5 1,7 1,1 3,2 5,2 2,0 4,-1 5,-2 1,-2 1,-4 1,-8 0,-3 0,-6 -1,-7 -1,-2 -3,-2 -5,-2z"/>
  <path id="2" class="fil5" d="M598 5363l12 -1 1 4c0,0 1,0 1,-1 1,0 2,-1 3,-2 1,-1 3,-1 4,-1 1,0 2,0 3,0 0,0 1,0 2,0l0 1 0 11 -5 0 -1 -5c-1,0 -2,0 -3,1 -1,0 -2,1 -3,1l0 1 0 16 6 1 0 5 -19 0 0 -4 4 -2 0 -19 -5 -1 0 -5z"/>
  <polygon id="3" class="fil5" points="626,5348 639,5347 640,5373 644,5373 648,5367 645,5366 645,5361 660,5361 660,5366 656,5367 651,5374 658,5386 662,5388 662,5392 651,5393 644,5378 640,5379 640,5387 643,5388 644,5393 627,5393 627,5389 632,5387 631,5354 626,5353 "/>
  <path id="4" class="fil5" d="M671 5383l0 4c2,0 3,0 5,0 3,1 5,-1 5,-3 0,-1 -1,-1 -2,-2 -1,-1 -2,-1 -4,-2 -1,0 -3,-1 -4,-2 -2,0 -3,-1 -4,-3 -1,-1 -1,-3 -1,-5 0,-3 1,-5 3,-7 3,-2 5,-2 9,-2 1,0 3,0 5,0 2,1 3,1 4,1l2 1c0,2 0,5 -1,9l-5 -1 -1 -3c-1,-1 -2,-1 -3,-1 -2,0 -3,0 -3,1 -1,0 -1,1 -1,2 -1,1 0,1 1,2 1,1 2,1 4,2 1,0 3,1 4,2 2,0 3,1 4,3 1,1 2,2 2,4 0,4 -2,6 -4,8 -3,2 -6,3 -10,3 -2,0 -3,-1 -5,-1 -2,0 -3,0 -4,-1l-2 0 0 -10 6 1z"/>
  <path id="5" class="fil5" d="M694 5349l14 0 -1 17c3,-3 7,-4 10,-4 3,0 5,1 7,3 1,2 2,5 2,8l0 16 4 1 0 5 -16 -1 0 -4 3 -2 0 -14c0,-3 -1,-5 -4,-5 -1,0 -2,1 -3,1 -1,1 -2,1 -2,2l-1 0 0 16 3 2 0 4 -17 0 0 -5 5 -1 1 -33 -5 -1 0 -5z"/>
  <path id="6" class="fil5" d="M750 5363c4,0 8,2 10,5 3,2 4,6 4,11 0,6 -2,10 -5,13 -2,3 -6,4 -11,4 -10,0 -15,-6 -15,-16 0,-6 2,-10 5,-13 3,-3 7,-4 12,-4zm-1 7c-2,0 -4,1 -5,2 -1,1 -1,4 -2,7 0,4 1,6 2,8 1,1 2,2 4,2 3,0 4,0 5,-2 1,-1 2,-4 2,-8 0,-3 0,-5 -1,-7 -1,-1 -3,-2 -5,-2z"/>
  <path id="7" class="fil5" d="M772 5370l-5 -1 1 -5 12 0 0 4c1,-1 1,-1 2,-1 0,-1 1,-1 3,-2 1,-1 3,-1 4,-1 4,0 7,1 9,4 2,3 3,7 3,12 0,5 -2,10 -4,12 -3,3 -7,5 -12,5 -2,0 -3,-1 -5,-1l0 7 6 2 -1 5 -18 -1 0 -5 4 -1 1 -33zm9 4l-1 16c1,0 3,0 5,1 2,0 4,-1 5,-3 1,-2 2,-4 2,-7 0,-7 -2,-10 -6,-10 -1,0 -2,0 -3,0 -1,1 -1,2 -2,2l0 1z"/>
  <line class="fil6 str0" x1="435" y1="5384" x2="655" y2= "5511" />
  <path class="fil5" d="M572 5445l-1 2c0,1 1,1 2,2 2,1 3,1 3,0 1,-1 0,-1 0,-2 0,-1 -1,-1 -1,-2 -1,-1 -2,-1 -2,-2 -1,-1 -1,-2 -1,-3 0,-1 0,-2 0,-3 1,-1 3,-2 4,-2 2,-1 4,0 5,1 1,0 2,1 3,2 1,0 1,1 2,1l0 1c0,1 -1,2 -2,4l-3 -1 1 -2c-1,-1 -1,-1 -2,-2 -1,0 -1,0 -2,0 0,0 -1,0 -1,1 0,0 0,0 0,1 1,1 1,1 2,2 0,1 1,1 2,2 0,1 0,2 1,3 0,1 0,2 -1,2 -1,2 -2,3 -4,3 -2,1 -4,0 -6,-1 0,-1 -1,-1 -2,-2 -1,0 -2,-1 -2,-1l-1 -1 3 -5 3 2z"/>
  <path id="1" class="fil5" d="M589 5441l7 4 -7 12 1 2 -1 3 -9 -5 2 -3 2 1 6 -10 -2 -2 1 -2zm5 -4c0,-1 1,-1 2,-1 1,-1 1,0 2,0 2,1 2,2 1,4 -1,1 -1,1 -2,2 -1,0 -1,0 -2,-1 -1,0 -1,-1 -2,-2 0,0 0,-1 1,-2z"/>
  <path id="2" class="fil5" d="M600 5447l6 3 -1 3c0,-1 1,-1 1,-1 1,0 1,0 3,1 1,0 2,0 3,0 1,1 2,2 2,4 0,1 0,2 -1,4l-5 8c1,0 1,0 1,1 1,0 1,1 1,1l-1 2 -8 -5 1 -2 2 0 4 -7c1,0 1,-1 1,-2 0,0 -1,-1 -1,-1 -1,-1 -2,-1 -2,-1 -1,0 -1,0 -2,0l-1 1 -4 7 1 2 -1 2 -8 -4 1 -3 3 1 5 -10 -2 -2 2 -2z"/>
  <path id="3" class="fil5" d="M625 5476l0 4c-3,0 -5,0 -7,-1 -3,-2 -4,-4 -5,-6 0,-2 0,-4 2,-7 1,-2 3,-4 5,-5 3,0 5,0 7,2 1,0 2,0 3,1 0,1 1,1 1,2l1 0 -3 5 -3 -1 1 -3c0,0 -1,-1 -2,-1 -1,-1 -2,-1 -3,0 -1,0 -2,1 -3,2 0,2 -1,3 -1,5 0,1 1,2 2,2 1,1 1,1 1,1 1,0 1,0 2,0 0,0 0,0 0,0 1,0 1,0 1,0 1,0 1,0 1,0z"/>
  <path id="4" class="fil5" d="M644 5484l-10 -6c-1,2 -1,3 -1,4 1,1 1,2 2,2 1,1 2,1 3,1 1,0 1,1 2,1l1 0 0 3c-1,0 -1,0 -2,0 0,0 -1,0 -2,0 -2,-1 -3,-1 -4,-2 -3,-1 -4,-3 -5,-5 0,-2 0,-4 2,-7 1,-3 3,-4 5,-5 3,-1 5,0 7,1 2,1 4,3 4,5 1,2 0,4 -1,6l-1 2zm-4 -10c-1,0 -2,0 -2,0 -1,0 -2,1 -2,2l5 3c1,-2 1,-4 -1,-5z"/>
  <path class="fil5" d="M684 5478l2 3 -15 9 -2 -4c1,-2 2,-3 2,-4 0,-2 1,-3 1,-4 1,-2 1,-3 1,-4 0,0 0,-1 0,-2 0,-1 0,-2 0,-2 -1,-1 -1,-2 -2,-2 -1,0 -2,0 -3,1 -1,0 -1,1 -2,1 0,0 0,0 -1,1l0 0 1 3 -3 1 -3 -5c2,-2 4,-4 6,-5 2,-1 5,-2 6,-2 2,0 4,1 5,3 1,1 1,2 1,4 0,1 0,2 0,3 0,2 0,3 -1,5 0,1 -1,3 -1,5l8 -5z"/>
  <path id="1" class="fil5" d="M681 5460c0,-2 2,-4 4,-6 3,-2 6,-2 8,-1 2,1 4,3 6,7 4,7 4,12 -2,15 -2,2 -5,2 -7,1 -2,-1 -4,-3 -6,-7 -2,-3 -3,-6 -3,-9zm9 -2c-1,-1 -2,-1 -3,0 -1,0 -1,1 -1,3 0,1 1,3 2,5 2,3 3,5 4,5 1,1 2,1 3,1 1,-1 2,-2 2,-3 0,-2 -1,-4 -3,-6 -1,-3 -3,-4 -4,-5z"/>
  <path id="2" class="fil5" d="M700 5449c0,-2 1,-4 4,-6 3,-1 5,-2 7,-1 3,1 5,4 7,7 4,7 3,13 -2,16 -3,1 -5,1 -7,0 -2,-1 -5,-3 -7,-7 -2,-3 -3,-6 -2,-9zm9 -2c-1,-1 -2,-1 -3,0 -1,1 -2,1 -1,3 0,1 1,3 2,6 2,2 3,4 4,5 1,0 2,0 3,0 1,-1 2,-2 1,-3 0,-1 -1,-3 -2,-6 -2,-3 -3,-4 -4,-5z"/>
  <path id="3" class="fil5" d="M725 5457l-1 -4c3,0 5,0 6,-1 1,-1 2,-2 2,-3 1,0 0,-1 0,-2 -1,-1 -2,-2 -3,-2 -1,0 -2,1 -4,2l-3 2 -6 -12 12 -7 1 4 -7 4 2 5c3,-2 5,-3 8,-3 2,1 3,2 5,4 1,2 1,4 0,6 -1,2 -2,4 -4,5 -1,1 -3,1 -4,1 -1,1 -2,1 -3,1l-1 0z"/>
  <line class="fil6 str0" x1="655" y1="5511" x2="874" y2= "5384" />
  <polygon class="fil1" points="641,5446 652,5440 664,5446 662,5433 671,5424 658,5423 652,5411 647,5423 634,5424 643,5433 "/>
 </g>
</svg>
